<?xml version="1.0" encoding="utf-8"?>
<!-- Generator: Adobe Illustrator 22.0.1, SVG Export Plug-In . SVG Version: 6.00 Build 0)  -->
<svg version="1.1" id="List" xmlns="http://www.w3.org/2000/svg" xmlns:xlink="http://www.w3.org/1999/xlink" x="0px" y="0px"
	 viewBox="0 0 73 73" style="enable-background:new 0 0 73 73;" xml:space="preserve">
<style type="text/css">
	.st0{fill:none;stroke:#3C3E3D;stroke-width:3;}
	.st1{fill:none;stroke:#0AB29C;stroke-width:3;}
	.st2{fill:none;stroke:#424242;stroke-width:3;}
</style>
<g id="Ico">
	<path id="Rounded_Rectangle_583_copy" class="st0" d="M30.5,58.5h36c2.8,0,5,2.2,5,5v0c0,2.8-2.2,5-5,5h-36c-2.8,0-5-2.2-5-5v0
		C25.5,60.7,27.7,58.5,30.5,58.5z"/>
	<path id="Rounded_Rectangle_583_copy_2" class="st1" d="M30.5,31.5h36c2.8,0,5,2.2,5,5v0c0,2.8-2.2,5-5,5h-36c-2.8,0-5-2.2-5-5v0
		C25.5,33.7,27.7,31.5,30.5,31.5z"/>
	<path id="Rounded_Rectangle_583_copy_3" class="st0" d="M30.5,4.5h36c2.8,0,5,2.2,5,5v0c0,2.8-2.2,5-5,5h-36c-2.8,0-5-2.2-5-5v0
		C25.5,6.7,27.7,4.5,30.5,4.5z"/>
	<circle id="Ellipse_1_copy_20" class="st1" cx="9.5" cy="36.5" r="8"/>
	<circle id="Ellipse_1_copy_20-2" class="st2" cx="9.5" cy="63.5" r="8"/>
	<circle id="Ellipse_1_copy_20-3" class="st2" cx="9.5" cy="9.5" r="8"/>
</g>
</svg>
